<?xml version="1.0" encoding="UTF-8" standalone="no"?>
<!-- Created with Inkscape (http://www.inkscape.org/) -->

<svg
   xmlns:dc="http://purl.org/dc/elements/1.1/"
   xmlns:cc="http://creativecommons.org/ns#"
   xmlns:rdf="http://www.w3.org/1999/02/22-rdf-syntax-ns#"
   xmlns:svg="http://www.w3.org/2000/svg"
   xmlns="http://www.w3.org/2000/svg"
   xmlns:sodipodi="http://sodipodi.sourceforge.net/DTD/sodipodi-0.dtd"
   xmlns:inkscape="http://www.inkscape.org/namespaces/inkscape"
   width="200.00186"
   height="34.613998"
   id="svg44851"
   version="1.1"
   inkscape:version="0.48.4 r9939"
   sodipodi:docname="logo.svg">
  <defs
     id="defs44853" />
  <sodipodi:namedview
     id="base"
     pagecolor="#ffffff"
     bordercolor="#666666"
     borderopacity="1.0"
     inkscape:pageopacity="0.0"
     inkscape:pageshadow="2"
     inkscape:zoom="7.9195959"
     inkscape:cx="104.55345"
     inkscape:cy="16.955099"
     inkscape:document-units="px"
     inkscape:current-layer="layer1"
     showgrid="false"
     fit-margin-top="0"
     fit-margin-left="0"
     fit-margin-right="0"
     fit-margin-bottom="0"
     inkscape:window-width="1920"
     inkscape:window-height="1056"
     inkscape:window-x="0"
     inkscape:window-y="24"
     inkscape:window-maximized="1" />
  <metadata
     id="metadata44856">
    <rdf:RDF>
      <cc:Work
         rdf:about="">
        <dc:format>image/svg+xml</dc:format>
        <dc:type
           rdf:resource="http://purl.org/dc/dcmitype/StillImage" />
        <dc:title></dc:title>
      </cc:Work>
    </rdf:RDF>
  </metadata>
  <g
     inkscape:label="Layer 1"
     inkscape:groupmode="layer"
     id="layer1"
     transform="translate(-125.71334,-475.05516)">
    <g
       id="g51667"
       transform="matrix(0.76597163,0,0,0.76597163,80.176488,113.77503)">
      <g
         id="g51649">
        <path
           id="path20809"
           d="m 70.81205,490.92913 c 2.414,0 4.09,0.973 5.027,2.918 0.48,0.973 0.715,1.951 0.703,2.936 v 6.311 c 0,2.414 -0.949,4.096 -2.848,5.045 -0.949,0.48 -1.898,0.715 -2.848,0.703 h -5.309 c -0.961,0.012 -1.922,-0.217 -2.883,-0.686 -1.934,-0.949 -2.9,-2.631 -2.9,-5.045 v -6.363 c 0,-0.973 0.24,-1.945 0.721,-2.918 0.961,-1.934 2.643,-2.9 5.045,-2.9 h 5.292 z m 2.566,6.592 c 0,-0.563 -0.135,-1.125 -0.404,-1.688 -0.551,-1.125 -1.523,-1.688 -2.918,-1.688 h -3.762 c -1.395,0 -2.367,0.557 -2.918,1.67 -0.281,0.563 -0.416,1.125 -0.404,1.688 v 4.816 c 0,1.395 0.557,2.367 1.67,2.918 0.551,0.27 1.107,0.398 1.67,0.387 h 3.779 c 0.539,0.012 1.084,-0.117 1.635,-0.387 1.102,-0.539 1.652,-1.518 1.652,-2.936 v -4.78 z"
           inkscape:connector-curvature="0"
           style="fill:#a8d166" />
        <path
           id="path20811"
           d="m 93.34705,490.87613 c 0.516,-0.012 1.037,0.111 1.564,0.369 1.043,0.504 1.564,1.406 1.564,2.707 v 10.02 c 0,0.445 -0.129,0.914 -0.387,1.406 -0.516,0.973 -1.424,1.564 -2.725,1.775 l -10.266,1.389 -0.018,7.559 -3.129,-0.018 v -22.096 c 0,-1.289 0.51,-2.197 1.529,-2.725 0.504,-0.258 1.014,-0.387 1.529,-0.387 h 10.339 z m -0.018,5.133 c 0,-0.832 -0.34,-1.406 -1.02,-1.723 -0.328,-0.164 -0.662,-0.246 -1.002,-0.246 h -6.275 c -0.328,0 -0.656,0.082 -0.984,0.246 -0.645,0.34 -0.967,0.926 -0.967,1.758 v 9.299 l 8.244,-1.283 c 0.832,-0.188 1.412,-0.58 1.74,-1.178 0.176,-0.305 0.264,-0.586 0.264,-0.844 v -6.029 z"
           inkscape:connector-curvature="0"
           style="fill:#5fa3d9" />
        <path
           id="path20813"
           d="m 113.22805,490.92913 c 0.527,-0.012 1.055,0.111 1.582,0.369 1.066,0.516 1.6,1.436 1.6,2.76 v 3.041 c 0,0.457 -0.135,0.932 -0.404,1.424 -0.527,0.984 -1.447,1.582 -2.76,1.793 l -10.441,1.424 v 1.811 c -0.012,0.34 0.064,0.686 0.229,1.037 0.328,0.691 0.92,1.037 1.775,1.037 h 10.67 l 0.053,3.217 h -12.762 c -1.348,0 -2.273,-0.539 -2.777,-1.617 -0.258,-0.551 -0.381,-1.096 -0.369,-1.635 v -11.496 c 0,-1.313 0.516,-2.232 1.547,-2.76 0.516,-0.27 1.037,-0.404 1.564,-0.404 h 10.493 z m -2.057,7.225 c 0.785,-0.188 1.354,-0.551 1.705,-1.09 0.199,-0.305 0.305,-0.615 0.316,-0.932 0,-0.844 -0.34,-1.43 -1.02,-1.758 -0.34,-0.164 -0.68,-0.24 -1.02,-0.229 h -6.363 c -0.34,0 -0.674,0.082 -1.002,0.246 -0.656,0.34 -0.984,0.932 -0.984,1.775 v 3.287 l 8.368,-1.299 z"
           inkscape:connector-curvature="0"
           style="fill:#5fa3d9" />
        <path
           id="path20815"
           d="m 132.59905,490.85913 c 0.539,-0.105 1.072,-0.047 1.6,0.176 1.066,0.445 1.6,1.477 1.6,3.094 v 14.713 h -3.182 v -13.219 c 0,-0.703 -0.246,-1.119 -0.738,-1.248 -0.246,-0.07 -0.492,-0.064 -0.738,0.018 l -6.908,1.072 c -0.855,0.188 -1.453,0.586 -1.793,1.195 -0.164,0.305 -0.246,0.592 -0.246,0.861 v 11.32 h -3.234 v -17.947 l 3.182,-0.018 v 1.459 -0.018 l 10.457,-1.458 z"
           inkscape:connector-curvature="0"
           style="fill:#5fa3d9" />
      </g>
      <g
         id="g51660">
        <path
           id="path20817"
           d="m 160.91705,491.22813 0.018,-7.541 3.111,0.018 v 22.043 c 0,1.277 -0.51,2.18 -1.529,2.707 -0.504,0.258 -1.014,0.387 -1.529,0.387 h -10.301 c -0.516,0.012 -1.037,-0.111 -1.564,-0.369 -1.043,-0.504 -1.564,-1.406 -1.564,-2.707 v -9.984 c 0,-0.445 0.129,-0.908 0.387,-1.389 0.527,-0.973 1.436,-1.564 2.725,-1.775 l 10.246,-1.39 z m -10.213,12.48 c 0,0.832 0.334,1.412 1.002,1.74 0.34,0.164 0.674,0.24 1.002,0.229 h 6.258 c 0.328,0 0.656,-0.082 0.984,-0.246 0.656,-0.328 0.984,-0.908 0.984,-1.74 v -9.281 l -8.227,1.283 c -0.832,0.188 -1.412,0.58 -1.74,1.178 -0.176,0.305 -0.264,0.586 -0.264,0.844 v 5.993 z"
           inkscape:connector-curvature="0"
           style="fill:#a8d166" />
        <path
           id="path20819"
           d="m 176.49105,490.92913 c 0.539,-0.105 1.072,-0.047 1.6,0.176 1.055,0.445 1.582,1.477 1.582,3.094 v 1.529 l -3.164,-0.053 c 0,-0.691 -0.246,-1.107 -0.738,-1.248 -0.234,-0.059 -0.475,-0.053 -0.721,0.018 l -2.355,0.791 c -0.926,0.328 -1.541,0.879 -1.846,1.652 -0.152,0.387 -0.211,0.744 -0.176,1.072 v 10.881 h -3.217 v -17.877 l 3.164,-0.018 v 1.441 h 0.018 l 5.853,-1.458 z"
           inkscape:connector-curvature="0"
           style="fill:#5fa3d9" />
        <path
           id="path20821"
           d="m 192.27705,490.92913 c 2.414,0 4.09,0.973 5.027,2.918 0.48,0.973 0.715,1.951 0.703,2.936 v 6.311 c 0,2.414 -0.949,4.096 -2.848,5.045 -0.949,0.48 -1.898,0.715 -2.848,0.703 h -5.309 c -0.961,0.012 -1.922,-0.217 -2.883,-0.686 -1.934,-0.949 -2.9,-2.631 -2.9,-5.045 v -6.363 c 0,-0.973 0.24,-1.945 0.721,-2.918 0.961,-1.934 2.643,-2.9 5.045,-2.9 h 5.292 z m 2.566,6.592 c 0,-0.563 -0.135,-1.125 -0.404,-1.688 -0.551,-1.125 -1.523,-1.688 -2.918,-1.688 h -3.762 c -1.395,0 -2.367,0.557 -2.918,1.67 -0.281,0.563 -0.416,1.125 -0.404,1.688 v 4.816 c 0,1.395 0.557,2.367 1.67,2.918 0.551,0.27 1.107,0.398 1.67,0.387 h 3.779 c 0.539,0.012 1.084,-0.117 1.635,-0.387 1.102,-0.539 1.652,-1.518 1.652,-2.936 v -4.78 z"
           inkscape:connector-curvature="0"
           style="fill:#5fa3d9" />
        <path
           id="path20823"
           d="m 215.04005,490.85913 c 0.539,-0.105 1.072,-0.047 1.6,0.176 1.066,0.445 1.6,1.477 1.6,3.094 v 14.713 h -3.182 v -13.219 c 0,-0.703 -0.246,-1.119 -0.738,-1.248 -0.246,-0.07 -0.492,-0.064 -0.738,0.018 l -6.908,1.072 c -0.855,0.188 -1.453,0.586 -1.793,1.195 -0.164,0.305 -0.246,0.592 -0.246,0.861 v 11.32 h -3.234 v -17.947 l 3.182,-0.018 v 1.459 -0.018 l 10.457,-1.458 z"
           inkscape:connector-curvature="0"
           style="fill:#5fa3d9" />
        <path
           id="path20825"
           d="m 235.41305,490.92913 c 0.527,-0.012 1.055,0.111 1.582,0.369 1.066,0.516 1.6,1.436 1.6,2.76 v 3.041 c 0,0.457 -0.135,0.932 -0.404,1.424 -0.527,0.984 -1.447,1.582 -2.76,1.793 l -10.441,1.424 v 1.811 c -0.012,0.34 0.064,0.686 0.229,1.037 0.328,0.691 0.92,1.037 1.775,1.037 h 10.67 l 0.053,3.217 h -12.763 c -1.348,0 -2.273,-0.539 -2.777,-1.617 -0.258,-0.551 -0.381,-1.096 -0.369,-1.635 v -11.496 c 0,-1.313 0.516,-2.232 1.547,-2.76 0.516,-0.27 1.037,-0.404 1.564,-0.404 h 10.494 z m -2.056,7.225 c 0.785,-0.188 1.354,-0.551 1.705,-1.09 0.199,-0.305 0.305,-0.615 0.316,-0.932 0,-0.844 -0.34,-1.43 -1.02,-1.758 -0.34,-0.164 -0.68,-0.24 -1.02,-0.229 h -6.363 c -0.34,0 -0.674,0.082 -1.002,0.246 -0.656,0.34 -0.984,0.932 -0.984,1.775 v 3.287 l 8.368,-1.299 z"
           inkscape:connector-curvature="0"
           style="fill:#5fa3d9" />
      </g>
      <g
         id="g51655">
        <path
           id="path20827"
           d="m 277.16105,490.98213 c 0.527,-0.105 1.055,-0.047 1.582,0.176 1.055,0.445 1.582,1.471 1.582,3.076 v 14.607 h -3.146 v -13.131 c 0,-0.691 -0.246,-1.102 -0.738,-1.23 -0.246,-0.07 -0.492,-0.07 -0.738,0 l -6.873,1.072 c -0.703,0.164 -1.23,0.475 -1.582,0.932 -0.223,0.293 -0.363,0.615 -0.422,0.967 v 11.391 h -3.199 v -13.201 c 0,-0.059 0.006,-0.135 0.018,-0.229 -0.082,-0.539 -0.346,-0.855 -0.791,-0.949 -0.223,-0.047 -0.434,-0.041 -0.633,0.018 l -6.873,1.072 c -0.844,0.188 -1.436,0.586 -1.775,1.195 -0.164,0.305 -0.246,0.592 -0.246,0.861 v 11.232 h -3.217 v -17.824 l 3.164,-0.018 v 1.441 l 10.389,-1.459 c 0.352,-0.07 0.732,-0.059 1.143,0.035 0.82,0.188 1.395,0.68 1.723,1.477 0.188,-0.047 0.27,-0.064 0.246,-0.053 l 10.386,-1.458 z"
           inkscape:connector-curvature="0"
           style="fill:#a8d166" />
        <path
           id="path20829"
           d="m 297.00705,490.92913 c 1.348,0 2.273,0.539 2.777,1.617 0.258,0.551 0.381,1.096 0.369,1.635 v 11.496 c 0,1.313 -0.521,2.232 -1.564,2.76 -0.516,0.27 -1.031,0.404 -1.547,0.404 h -10.494 c -0.527,0.012 -1.055,-0.111 -1.582,-0.369 -1.066,-0.516 -1.6,-1.436 -1.6,-2.76 v -3.041 c 0,-0.445 0.135,-0.92 0.404,-1.424 0.527,-0.984 1.447,-1.582 2.76,-1.793 l 10.441,-1.424 v -1.811 c 0.012,-0.34 -0.064,-0.686 -0.229,-1.037 -0.328,-0.691 -0.92,-1.037 -1.775,-1.037 h -8.455 l -0.035,-3.217 h 10.53 z m -0.035,9.475 -8.367,1.213 c -0.785,0.188 -1.354,0.551 -1.705,1.09 -0.199,0.305 -0.305,0.615 -0.316,0.932 0,0.844 0.34,1.43 1.02,1.758 0.34,0.164 0.68,0.24 1.02,0.229 h 6.363 c 0.328,0 0.662,-0.082 1.002,-0.246 0.656,-0.34 0.984,-0.932 0.984,-1.775 v -3.201 z"
           inkscape:connector-curvature="0"
           style="fill:#5fa3d9" />
        <path
           id="path20831"
           d="m 317.11605,490.87613 c 0.516,-0.012 1.037,0.111 1.564,0.369 1.043,0.504 1.564,1.406 1.564,2.707 v 10.02 c 0,0.445 -0.129,0.914 -0.387,1.406 -0.516,0.973 -1.424,1.564 -2.725,1.775 l -10.266,1.389 -0.018,7.559 -3.129,-0.018 v -22.096 c 0,-1.289 0.51,-2.197 1.529,-2.725 0.504,-0.258 1.014,-0.387 1.529,-0.387 h 10.339 z m -0.017,5.133 c 0,-0.832 -0.34,-1.406 -1.02,-1.723 -0.328,-0.164 -0.662,-0.246 -1.002,-0.246 h -6.275 c -0.328,0 -0.656,0.082 -0.984,0.246 -0.645,0.34 -0.967,0.926 -0.967,1.758 v 9.299 l 8.244,-1.283 c 0.832,-0.188 1.412,-0.58 1.74,-1.178 0.176,-0.305 0.264,-0.586 0.264,-0.844 v -6.029 z"
           inkscape:connector-curvature="0"
           style="fill:#5fa3d9" />
      </g>
    </g>
  </g>
</svg>
